<?xml version="1.0" encoding="UTF-8"?>
<!DOCTYPE svg PUBLIC "-//W3C//DTD SVG 1.1//EN" "http://www.w3.org/Graphics/SVG/1.1/DTD/svg11.dtd">
<!-- Creator: CorelDRAW 2020 (64-Bit) -->
<svg xmlns="http://www.w3.org/2000/svg" xml:space="preserve" width="5.5959mm" height="5.421mm" version="1.1" style="shape-rendering:geometricPrecision; text-rendering:geometricPrecision; image-rendering:optimizeQuality; fill-rule:evenodd; clip-rule:evenodd"
viewBox="0 0 27.19 26.34"
 xmlns:xlink="http://www.w3.org/1999/xlink"
 xmlns:xodm="http://www.corel.com/coreldraw/odm/2003">
 <defs>
  <style type="text/css">
   <![CDATA[
    .fil0 {fill:#B3B3B3}
   ]]>
  </style>
 </defs>
 <g id="Layer_x0020_1">
  <metadata id="CorelCorpID_0Corel-Layer"/>
  <path class="fil0" d="M7.81 8.07l-0.7 1.05c-1.28,1.97 -0.63,1.41 -0.87,2.69 -0.13,0.74 -0.77,1.74 -1.12,2.43 -0.21,0.42 -0.35,0.86 -0.55,1.26 -0.27,0.54 -1.06,1.81 -1.06,2.49 0,0.35 0.8,1.72 1.17,1.86 0.75,0.28 2.51,0.12 3.04,-0.41 0.12,-0.12 0.27,-0.25 0.37,-0.38 0.39,-0.49 0.67,-1.46 1.24,-1.74 0.94,-0.46 1.92,0.04 2.96,-1.5 0.15,-0.22 0.46,-0.76 0.52,-1.02 0.15,0.23 0.2,0.62 0.26,0.86 0.53,2.13 0.69,4.06 -0.33,6.08 -0.43,0.87 -0.96,1.66 -1.3,2.57 -0.18,0.47 -0.29,1.04 -0.37,1.54 -0.04,0.24 -0.14,0.47 0.1,0.47l14.12 0c0.37,0 0.64,-0.06 0.96,-0.1 0.32,-0.04 0.66,-0.16 0.95,-0.16 -0.09,-0.13 -0.17,-0.12 -0.34,-0.19 -0.37,-0.17 -0.68,-0.42 -0.99,-0.65 -0.27,-0.21 -0.87,-0.86 -0.9,-1.27 0.33,0.08 0.6,0.14 0.94,0.09 0.27,-0.04 0.65,-0.05 0.92,0.12 0.14,0.09 0.22,0.18 0.37,0.22 0,-1.47 -2.26,-1.87 -2.55,-3.13 0.85,0.2 1.38,0.2 2.23,0 -0.05,-0.07 -1.17,-0.79 -1.45,-1.05 -0.21,-0.2 -0.45,-0.37 -0.62,-0.6 -0.19,-0.24 -0.42,-0.43 -0.42,-0.85 0.4,0.09 0.67,0.23 1.12,0.16 0.39,-0.06 0.76,-0.18 1.06,-0.32 -0.17,-0.23 -0.67,-0.49 -0.92,-0.67 -1,-0.75 -1.69,-1.51 -2,-2.83 0.66,0.31 1.5,0.78 2.23,0.8 -0.2,-0.37 -0.5,-0.63 -0.76,-1.15 -0.39,-0.79 -0.75,-1.04 -1.5,-1.42 -0.72,-0.36 -1.23,-0.63 -1.61,-1.36 0.48,0.01 1.89,0.42 2.5,-0.48 -0.15,-0.07 -0.42,-0.1 -0.62,-0.17 -0.75,-0.29 -1.45,-0.78 -2.04,-1.3 -0.45,-0.4 -0.87,-0.84 -1.21,-1.34 0.98,0 1.45,0.43 2.44,0.43 -0.18,-0.26 -0.53,-0.57 -0.77,-0.88 -0.23,-0.31 -0.43,-0.67 -0.7,-0.94 -0.47,-0.47 -1.24,-0.61 -1.87,-0.62 -0.32,-0.01 -0.55,-0.05 -0.8,-0.05 0.16,-0.23 0.3,-0.3 0.44,-0.62 0.35,-0.8 0.14,-1.33 0.14,-2.04l-0.11 0c-0.06,0.24 -0.57,0.89 -0.76,1.04 -0.6,0.45 -1.08,0.5 -1.84,0.5 -0.4,0 -0.79,-0.08 -1.06,-0.21 0.18,-0.35 0.27,-0.5 0.33,-1l-0.05 -0.82c-0.06,-0.27 0.05,-0.12 -0.13,-0.25 -0.16,0.7 -0.77,1.08 -1.44,1.26 -0.31,0.08 -0.85,0.17 -1.21,0.17 -0.24,0 -0.5,0 -0.65,0.04 -0.83,0.16 -0.44,0.15 -1.05,-0.25 -0.76,-0.5 -1.49,-0.64 -2.44,-0.64 -0.18,0 -0.21,0.04 -0.37,0.05l0.84 0.86c0.94,1.15 0.71,1.17 0.2,1.51 -0.19,0.13 -0.34,0.22 -0.51,0.34 -1.75,-1.17 -3.4,-2.49 -5.13,-3.69l-2.29 -1.64c-0.47,-0.36 -0.95,-0.73 -1.46,-1.03 -0.16,-0.09 -0.21,-0.1 -0.36,-0.18 0.03,0.36 1.07,1.26 1.37,1.55 0.09,0.09 0.15,0.14 0.24,0.24 0.12,0.12 0.13,0.17 0.24,0.29 0.63,0.72 3.23,3.23 3.98,3.98 0.44,0.44 1.7,1.59 1.98,2z"/>
 </g>
</svg>
